<svg height="512pt" viewBox="0 0 512 512" width="512pt" xmlns="http://www.w3.org/2000/svg"><g fill="#757575"><path d="m464.03125 88.363281v80.789063h40.394531v-80.789063c0-44.621093-36.167969-80.789062-80.789062-80.789062h-80.789063v40.394531h80.789063c22.308593 0 40.394531 18.085938 40.394531 40.394531zm0 0"/><path d="m47.96875 88.363281v80.789063h-40.394531v-80.789063c0-44.621093 36.167969-80.789062 80.789062-80.789062h80.789063v40.394531h-80.789063c-22.308593 0-40.394531 18.085938-40.394531 40.394531zm0 0"/><path d="m47.96875 423.636719v-80.789063h-40.394531v80.789063c0 44.617187 36.167969 80.789062 80.789062 80.789062h80.789063v-40.394531h-80.789063c-22.308593 0-40.394531-18.085938-40.394531-40.394531zm0 0"/><path d="m464.03125 423.636719v-80.789063h40.394531v80.789063c0 44.617187-36.167969 80.789062-80.789062 80.789062h-80.789063v-40.394531h80.789063c22.308593 0 40.394531-18.085938 40.394531-40.394531zm0 0"/></g><path d="m256 441.8125c-85.332031 0-154.507812-69.175781-154.507812-154.507812v-62.609376c0-85.335937 69.175781-154.511718 154.507812-154.511718s154.507812 69.175781 154.507812 154.511718v62.609376c0 85.335937-69.175781 154.507812-154.507812 154.507812zm0 0" fill="#feccc1"/><path d="m256 70.1875c-5.285156 0-10.507812.265625-15.652344.785156 77.980469 7.84375 138.855469 73.671875 138.855469 153.722656v62.609376c0 80.050781-60.875 145.878906-138.855469 153.726562 5.144532.515625 10.367188.785156 15.652344.785156 85.332031 0 154.507812-69.175781 154.507812-154.511718v-62.609376c0-85.335937-69.175781-154.507812-154.507812-154.507812zm0 0" fill="#f9b3a7"/><path d="m189.632812 338.808594c12.433594 23.992187 37.476563 40.394531 66.367188 40.394531s53.929688-16.402344 66.367188-40.394531zm0 0" fill="#ff5f5f"/><path d="m423.636719 0h-80.789063c-4.183594 0-7.574218 3.390625-7.574218 7.574219v40.394531c0 4.183594 3.390624 7.574219 7.574218 7.574219h80.789063c18.097656 0 32.820312 14.722656 32.820312 32.820312v80.789063c0 4.183594 3.390625 7.574218 7.574219 7.574218h40.394531c4.183594 0 7.574219-3.390624 7.574219-7.574218v-80.789063c0-48.722656-39.640625-88.363281-88.363281-88.363281zm73.214843 161.578125h-25.246093v-73.214844c0-26.449219-21.519531-47.96875-47.96875-47.96875h-73.214844v-25.246093h73.214844c40.371093 0 73.214843 32.84375 73.214843 73.214843zm0 0"/><path d="m7.574219 176.726562h40.394531c4.183594 0 7.574219-3.390624 7.574219-7.574218v-80.789063c0-18.097656 14.722656-32.820312 32.820312-32.820312h80.789063c4.183594 0 7.574218-3.390625 7.574218-7.574219v-40.394531c0-4.183594-3.390624-7.574219-7.574218-7.574219h-34.839844c-4.183594 0-7.574219 3.390625-7.574219 7.574219 0 4.183593 3.390625 7.574219 7.574219 7.574219h27.265625v25.246093h-73.214844c-26.449219 0-47.96875 21.519531-47.96875 47.96875v73.214844h-25.246093v-73.214844c0-40.371093 32.84375-73.214843 73.214843-73.214843h10.941407c4.179687 0 7.574218-3.390626 7.574218-7.574219 0-4.183594-3.394531-7.574219-7.574218-7.574219h-10.941407c-48.722656 0-88.363281 39.640625-88.363281 88.363281v80.789063c0 4.183594 3.390625 7.574218 7.574219 7.574218zm0 0"/><path d="m169.152344 456.457031h-80.789063c-18.097656 0-32.820312-14.722656-32.820312-32.820312v-80.789063c0-4.183594-3.390625-7.574218-7.574219-7.574218h-40.394531c-4.183594 0-7.574219 3.390624-7.574219 7.574218v80.789063c0 48.722656 39.640625 88.363281 88.363281 88.363281h80.789063c4.183594 0 7.574218-3.390625 7.574218-7.574219v-40.394531c0-4.183594-3.390624-7.574219-7.574218-7.574219zm-7.574219 40.394531h-73.214844c-40.371093 0-73.214843-32.84375-73.214843-73.214843v-73.214844h25.246093v73.214844c0 26.449219 21.519531 47.96875 47.96875 47.96875h73.214844zm0 0"/><path d="m418.082031 287.304688v-62.609376c0-89.375-72.710937-162.082031-162.082031-162.082031-32.386719 0-63.652344 9.523438-90.410156 27.539063-3.472656 2.335937-4.390625 7.042968-2.054688 10.511718 2.335938 3.472657 7.042969 4.390626 10.511719 2.054688 24.253906-16.328125 52.59375-24.960938 81.953125-24.960938 81.019531 0 146.933594 65.917969 146.933594 146.9375v62.609376c0 81.019531-65.914063 146.933593-146.933594 146.933593s-146.933594-65.914062-146.933594-146.933593v-62.609376c0-36.953124 13.761719-72.265624 38.757813-99.441406 2.832031-3.078125 2.632812-7.871094-.445313-10.703125-3.078125-2.828125-7.871094-2.628906-10.703125.449219-27.574219 29.976562-42.757812 68.9375-42.757812 109.695312v62.609376c0 89.375 72.710937 162.082031 162.082031 162.082031s162.082031-72.707031 162.082031-162.082031zm0 0"/><path d="m297.429688 244.515625c4.769531-12.761719 17.339843-21.335937 31.28125-21.335937 13.9375 0 26.511718 8.574218 31.277343 21.335937 1.140625 3.042969 4.027344 4.921875 7.097657 4.921875.882812 0 1.777343-.15625 2.652343-.480469 3.917969-1.464843 5.90625-5.828125 4.441407-9.746093-6.96875-18.648438-25.242188-31.179688-45.46875-31.179688-20.226563 0-38.5 12.53125-45.46875 31.179688-1.464844 3.917968.523437 8.28125 4.441406 9.746093 3.921875 1.464844 8.28125-.523437 9.746094-4.441406zm0 0"/><path d="m182.28125 208.03125c-20.226562 0-38.5 12.53125-45.46875 31.179688-1.464844 3.917968.523438 8.28125 4.441406 9.746093 3.921875 1.464844 8.28125-.523437 9.746094-4.441406 4.769531-12.761719 17.339844-21.335937 31.28125-21.335937s26.511719 8.574218 31.28125 21.335937c1.136719 3.042969 4.023438 4.921875 7.09375 4.921875.882812 0 1.777344-.15625 2.652344-.480469 3.917968-1.464843 5.90625-5.828125 4.441406-9.746093-6.972656-18.648438-25.242188-31.179688-45.46875-31.179688zm0 0"/><path d="m183.160156 334.875c-1.375 2.257812-1.46875 5.070312-.253906 7.421875 14.226562 27.4375 42.234375 44.480469 73.09375 44.480469s58.867188-17.042969 73.09375-44.480469c1.214844-2.351563 1.121094-5.164063-.253906-7.421875-1.371094-2.261719-3.824219-3.640625-6.472656-3.640625h-132.734376c-2.644531 0-5.097656 1.378906-6.472656 3.640625zm125.316406 11.507812c-12.601562 15.820313-31.75 25.246094-52.476562 25.246094s-39.875-9.425781-52.476562-25.246094zm0 0"/><path d="m504.425781 335.273438h-40.394531c-4.183594 0-7.574219 3.390624-7.574219 7.574218v80.789063c0 18.097656-14.722656 32.820312-32.820312 32.820312h-80.789063c-4.183594 0-7.574218 3.390625-7.574218 7.574219v40.394531c0 4.183594 3.390624 7.574219 7.574218 7.574219h34.839844c4.183594 0 7.574219-3.390625 7.574219-7.574219 0-4.183593-3.390625-7.574219-7.574219-7.574219h-27.265625v-25.246093h73.214844c26.453125 0 47.96875-21.519531 47.96875-47.96875v-73.214844h25.246093v73.214844c0 40.371093-32.84375 73.214843-73.214843 73.214843h-10.9375c-4.183594 0-7.574219 3.390626-7.574219 7.574219 0 4.183594 3.390625 7.574219 7.574219 7.574219h10.9375c48.722656 0 88.363281-39.640625 88.363281-88.363281v-80.789063c0-4.183594-3.390625-7.574218-7.574219-7.574218zm0 0"/></svg>